<?xml version="1.0" encoding="iso-8859-1"?>
<!-- Uploaded to: SVG Repo, www.svgrepo.com, Generator: SVG Repo Mixer Tools -->
<!DOCTYPE svg PUBLIC "-//W3C//DTD SVG 1.1//EN" "http://www.w3.org/Graphics/SVG/1.1/DTD/svg11.dtd">
<svg fill="#000000" version="1.1" id="Capa_1" xmlns="http://www.w3.org/2000/svg" xmlns:xlink="http://www.w3.org/1999/xlink" 
	 width="800px" height="800px" viewBox="0 0 363.718 363.718"
	 xml:space="preserve">
<g>
	<g>
		<path d="M181.86,84.985c-54.831,0-99.438,44.607-99.438,99.437c0,1.537,1.261,2.802,2.801,2.802h24.908v104.778
			c0,39.54,32.172,71.716,71.721,71.716c39.558,0,71.735-32.176,71.735-71.716V187.234h24.906c1.532,0,2.802-1.263,2.802-2.802
			C281.296,129.593,236.688,84.985,181.86,84.985z M247.981,292.002c0,36.454-29.668,66.112-66.129,66.112
			c-36.459,0-66.118-29.658-66.118-66.112V187.234h132.247V292.002L247.981,292.002z M250.783,181.626h-137.85H88.066
			c1.488-50.43,42.993-91.032,93.794-91.032c50.801,0,92.311,40.586,93.789,91.032H250.783z"/>
		<path d="M184.662,79.259V2.801c0-1.545-1.261-2.801-2.802-2.801c-1.542,0-2.802,1.256-2.802,2.801v76.458
			c0,1.546,1.26,2.802,2.802,2.802C183.401,82.061,184.662,80.805,184.662,79.259z"/>
		<path d="M213.126,294.804c1.545,0,2.802-1.265,2.802-2.802v-72.477c0-1.543-1.257-2.802-2.802-2.802
			c-1.555,0-2.802,1.259-2.802,2.802v72.498C210.324,293.55,211.571,294.804,213.126,294.804z"/>
	</g>
</g>
</svg>